<svg width="48" height="48" viewBox="0 0 48 48" fill="none" xmlns="http://www.w3.org/2000/svg">
<path d="M12.36 1.91992L11.2875 2.18992C9.70875 2.58367 6.72 4.04992 6.72 7.67992C6.72 9.30742 7.18125 10.6462 7.5075 11.3849C6.855 12.2737 5.76 14.2199 5.76 17.2799C5.76 21.2474 8.50875 23.6887 9.615 24.5099C9.8175 28.5112 12.3975 31.4099 16.3725 32.3249C13.1963 36.1049 10.0763 39.6299 7.995 41.5312C7.7925 41.7112 7.68 41.9699 7.68 42.2399C7.68 44.0174 11.0363 46.0799 15.36 46.0799C20.0213 46.0799 23.475 45.0224 25.6275 42.9299C25.815 42.7499 25.92 42.4987 25.92 42.2399V37.3199C30.3413 36.6187 37.44 33.7424 37.44 26.8799C37.44 24.7649 37.0275 22.4774 36.735 21.1199H41.28C41.6325 21.1199 41.9587 20.9249 42.1275 20.6137C42.2962 20.3024 42.2738 19.9237 42.0788 19.6274L40.2825 16.9349C40.1175 15.8249 39.24 11.5199 35.52 11.5199C32.205 11.5199 30.7388 13.6912 29.04 16.2037C28.92 16.3799 28.785 16.5712 28.6613 16.7512C27.8813 14.6849 26.88 10.7024 26.88 3.83992V2.87992H25.92C20.58 2.87992 20.19 7.67992 20.16 10.0499C19.0463 10.9349 18.075 12.6449 17.805 14.6212C15.255 11.7374 12.99 7.89367 12.4763 3.01867L12.36 1.91992ZM10.7363 4.48117C12.7988 17.0174 24.975 22.6949 25.5075 22.9499C25.5187 22.9537 25.5263 22.9537 25.5338 22.9574L26.175 23.2649C27.8213 21.1537 29.0625 19.5149 29.58 18.7987C29.955 18.2774 30.3 17.7674 30.63 17.2799C32.3325 14.7562 33.3263 13.4399 35.52 13.4399C37.965 13.4399 38.4 17.3399 38.4037 17.3737C38.4225 17.5312 38.475 17.6812 38.5612 17.8124L39.4837 19.1999H35.52C35.22 19.1999 34.9387 19.3387 34.7587 19.5749C34.5788 19.8112 34.515 20.1187 34.59 20.4074C34.6012 20.4412 35.52 23.9287 35.52 26.8799C35.52 34.3087 24.9675 35.5162 24.8588 35.5237C24.3713 35.5799 24 35.9887 24 36.4799V41.8162C22.2038 43.3499 19.2263 44.1599 15.36 44.1599C12.36 44.1599 10.4025 43.0424 9.795 42.4762C12.1238 40.2449 15.3975 36.4987 18.6263 32.6212C18.8175 32.6287 19.005 32.6399 19.2 32.6399C19.7288 32.6399 20.16 32.2087 20.16 31.6799C20.16 31.1512 19.7288 30.7199 19.2 30.7199C14.535 30.7199 11.52 28.0837 11.52 23.9999V23.4599L11.0588 23.1787C11.025 23.1599 7.68 21.0749 7.68 17.2799C7.68 13.8824 9.2475 12.2699 9.3075 12.2099L9.85125 11.6849L9.465 11.0287C9.4575 11.0174 8.64 9.58492 8.64 7.67992C8.64 5.77492 9.825 4.98742 10.7363 4.48117ZM24.9675 4.87492C25.0837 12.6937 26.4825 16.7587 27.3563 18.5737C26.8988 19.1887 26.3288 19.9349 25.6238 20.8462C24.4988 20.2349 22.1513 18.8399 19.7138 16.5862C19.3388 14.2199 20.5725 11.9587 21.585 11.3999L22.08 11.1262V10.5599C22.08 7.38742 22.59 5.29492 24.9675 4.87492Z" fill="#303864"/>
</svg>
