<svg width="59" height="44" viewBox="0 0 59 44" fill="none" xmlns="http://www.w3.org/2000/svg">
<path opacity="0.4" d="M33.0935 31.1595C33.0935 23.7977 37.7734 19.3463 43.7904 19.3463C45.6289 19.3463 47.1331 19.6887 48.4703 20.2023C48.4703 14.2101 43.4561 9.58756 36.2691 8.21791V0C49.6402 1.71207 59 12.8405 59 27.2218C59 37.4942 53.3173 44 45.4618 44C38.1076 44 33.0935 38.6926 33.0935 31.1595ZM0 31.1595C0 23.7977 4.84702 19.3463 10.864 19.3463C12.7025 19.3463 14.2068 19.6887 15.5439 20.3735C15.5439 14.2101 10.3626 9.58756 3.17564 8.21791V0C16.5467 1.71207 25.9065 12.8405 25.9065 27.2218C25.9065 37.4942 20.2238 44 12.3683 44C5.01417 44 0 38.6926 0 31.1595Z" fill="#314564"/>
</svg>
