<svg width="59" height="44" viewBox="0 0 59 44" fill="none" xmlns="http://www.w3.org/2000/svg">
<path opacity="0.4" d="M25.9065 31.1595C25.9065 23.7977 21.2266 19.3463 15.2096 19.3463C13.3711 19.3463 11.8669 19.6887 10.5297 20.2023C10.5297 14.2101 15.5439 9.58756 22.7309 8.21791V0C9.35977 1.71207 0 12.8405 0 27.2218C0 37.4942 5.68272 44 13.5382 44C20.8924 44 25.9065 38.6926 25.9065 31.1595ZM59 31.1595C59 23.7977 54.153 19.3463 48.136 19.3463C46.2975 19.3463 44.7932 19.6887 43.4561 20.3735C43.4561 14.2101 48.6374 9.58756 55.8244 8.21791V0C42.4533 1.71207 33.0935 12.8405 33.0935 27.2218C33.0935 37.4942 38.7762 44 46.6317 44C53.9858 44 59 38.6926 59 31.1595Z" fill="#303864"/>
</svg>
