<svg width="32" height="32" viewBox="0 0 32 32" fill="none" xmlns="http://www.w3.org/2000/svg">
<path d="M12.3711 5.7586L14.9778 9.4079C15.3702 9.95738 15.308 10.7101 14.8305 11.1875L13.5267 12.4914C12.9872 13.0308 12.9872 13.9054 13.5267 14.4449L17.7892 18.7074C18.3286 19.2468 19.2032 19.2468 19.7427 18.7074L21.0465 17.4036C21.524 16.9261 22.2767 16.8638 22.8261 17.2563L26.4754 19.8629C27.8629 20.854 28.0284 22.8537 26.8228 24.0594C24.5365 26.3456 20.9692 26.7372 18.2415 25.0013L16.6934 24.0162C13.282 21.8453 10.3887 18.952 8.21787 15.5407L7.2327 13.9926C5.49689 11.2648 5.88848 7.6975 8.17469 5.41129C9.38036 4.20562 11.3801 4.37113 12.3711 5.7586Z" stroke="white" stroke-width="1.5" stroke-linecap="round" stroke-linejoin="round"/>
</svg>
