<svg width="49" height="48" viewBox="0 0 49 48" fill="none" xmlns="http://www.w3.org/2000/svg">
<g clip-path="url(#clip0_322_59)">
<path d="M8.01336 0C7.25211 0 6.58461 0.435 6.27336 1.08C5.87586 1.16625 5.34336 1.30125 4.80336 1.5C4.26336 1.69875 3.70836 1.96125 3.21336 2.37C2.71836 2.77875 2.25336 3.40875 2.25336 4.2C2.25336 4.545 2.30961 4.9425 2.40336 5.58C2.49711 6.2175 2.63211 7.06125 2.82336 8.01C3.20211 9.9075 3.78711 12.3225 4.56336 14.82C6.09336 19.7475 8.27961 25.0313 11.8834 27.21C11.8796 27.2888 11.8534 27.3675 11.8534 27.45C11.8534 28.5975 12.1946 29.9663 12.7834 31.17C13.0759 31.77 13.4359 32.3063 13.8934 32.76C14.1371 33.0038 14.4371 33.2363 14.7634 33.39C14.7971 35.8875 15.0371 39.0525 16.8034 41.79C18.7421 44.7975 22.5259 47.04 29.1334 47.04C35.1484 47.04 38.6696 44.5538 40.5034 41.73C42.0109 39.4088 42.4384 36.99 42.5434 35.46C45.8059 35.0063 48.3334 32.1863 48.3334 28.8C48.3334 25.1025 45.3109 22.08 41.6134 22.08C37.9121 22.08 34.8934 25.1025 34.8934 28.8C34.8934 32.1525 37.3759 34.935 40.5934 35.43C40.4771 36.7388 40.0909 38.8163 38.8834 40.68C37.3571 43.0313 34.6384 45.12 29.1334 45.12C22.9421 45.12 20.0021 43.185 18.4234 40.74C16.9871 38.5163 16.7246 35.7263 16.6834 33.36C16.9834 33.2063 17.2646 32.985 17.4934 32.76C17.9471 32.3063 18.3109 31.77 18.6034 31.17C19.1921 29.9663 19.5334 28.5975 19.5334 27.45C19.5334 27.3675 19.5071 27.2888 19.5034 27.21C23.1071 25.0313 25.2934 19.7475 26.8234 14.82C27.5996 12.3225 28.1846 9.9075 28.5634 8.01C28.7546 7.06125 28.8896 6.2175 28.9834 5.58C29.0771 4.9425 29.1334 4.545 29.1334 4.2C29.1334 3.40875 28.6684 2.77875 28.1734 2.37C27.6784 1.96125 27.1234 1.69875 26.5834 1.5C26.0434 1.30125 25.5109 1.16625 25.1134 1.08C25.0946 1.07625 25.1021 1.08375 25.0834 1.08C24.7721 0.4425 24.1309 0 23.3734 0C22.3121 0 21.4534 0.85875 21.4534 1.92C21.4534 2.98125 22.3121 3.84 23.3734 3.84C24.0221 3.84 24.5846 3.52125 24.9334 3.03C25.2296 3.0975 25.5746 3.1725 25.9234 3.3C26.3434 3.45375 26.7484 3.6525 26.9734 3.84C27.1984 4.0275 27.2134 4.1025 27.2134 4.2C27.2134 4.2375 27.1834 4.71 27.0934 5.31C27.0034 5.91 26.8571 6.6975 26.6734 7.62C26.3059 9.46125 25.7434 11.835 24.9934 14.25C23.5421 18.9225 21.2396 23.73 18.6634 25.44C18.4421 25.275 18.2059 25.1438 17.9734 25.08C17.1371 24.8475 16.4171 24.99 15.6934 24.99C14.9696 24.99 14.2496 24.8513 13.4134 25.08C13.1809 25.1438 12.9446 25.275 12.7234 25.44C10.1471 23.73 7.84461 18.9225 6.39336 14.25C5.64336 11.835 5.08086 9.46125 4.71336 7.62C4.52961 6.6975 4.38336 5.91 4.29336 5.31C4.20336 4.71 4.17336 4.2375 4.17336 4.2C4.17336 4.1025 4.18836 4.0275 4.41336 3.84C4.63836 3.6525 5.04336 3.45375 5.46336 3.3C5.81211 3.1725 6.15711 3.0975 6.45336 3.03C6.80211 3.52125 7.36461 3.84 8.01336 3.84C9.07461 3.84 9.93336 2.98125 9.93336 1.92C9.93336 0.85875 9.07461 0 8.01336 0ZM41.6134 24C44.2721 24 46.4134 26.1413 46.4134 28.8C46.4134 31.4288 44.3209 33.5513 41.7034 33.6C41.6734 33.6 41.6434 33.6 41.6134 33.6C38.9509 33.6 36.8134 31.4588 36.8134 28.8C36.8134 26.1413 38.9509 24 41.6134 24ZM41.6134 25.92C40.0346 25.92 38.7334 27.2213 38.7334 28.8C38.7334 30.3788 40.0346 31.68 41.6134 31.68C43.1921 31.68 44.4934 30.3788 44.4934 28.8C44.4934 27.2213 43.1921 25.92 41.6134 25.92ZM14.5534 26.91C14.8609 26.91 15.2621 26.91 15.6934 26.91C16.5596 26.91 17.2571 26.8838 17.4634 26.94C17.5684 26.97 17.5459 26.9288 17.5534 26.94C17.5609 26.9513 17.6134 27.0975 17.6134 27.45C17.6134 28.1513 17.3171 29.4 16.8634 30.33C16.6346 30.795 16.3759 31.1775 16.1434 31.41C15.9596 31.5938 15.8321 31.6313 15.7534 31.65C15.7121 31.6463 15.6746 31.6463 15.6334 31.65C15.5546 31.6313 15.4271 31.5938 15.2434 31.41C15.0109 31.1775 14.7521 30.795 14.5234 30.33C14.0696 29.4 13.7734 28.1513 13.7734 27.45C13.7734 27.0975 13.8259 26.9513 13.8334 26.94C13.8409 26.9288 13.8184 26.97 13.9234 26.94C14.0284 26.91 14.2459 26.91 14.5534 26.91ZM41.6134 27.84C42.1571 27.84 42.5734 28.2563 42.5734 28.8C42.5734 29.3438 42.1571 29.76 41.6134 29.76C41.0696 29.76 40.6534 29.3438 40.6534 28.8C40.6534 28.2563 41.0696 27.84 41.6134 27.84Z" fill="#303864"/>
</g>
<defs>
<clipPath id="clip0_322_59">
<rect width="48" height="48" fill="white" transform="translate(0.333344)"/>
</clipPath>
</defs>
</svg>
