<svg width="20" height="20" viewBox="0 0 20 20" fill="none" xmlns="http://www.w3.org/2000/svg">
<path d="M1 3C1 1.89543 1.89543 1 3 1H6C7.10457 1 8 1.89543 8 3V6C8 7.10457 7.10457 8 6 8H3C1.89543 8 1 7.10457 1 6V3Z" stroke="black" stroke-width="1.5"/>
<path d="M12 14C12 12.8954 12.8954 12 14 12H17C18.1046 12 19 12.8954 19 14V17C19 18.1046 18.1046 19 17 19H14C12.8954 19 12 18.1046 12 17V14Z" stroke="black" stroke-width="1.5"/>
<path d="M19 4.5C19 6.433 17.433 8 15.5 8C13.567 8 12 6.433 12 4.5C12 2.567 13.567 1 15.5 1C17.433 1 19 2.567 19 4.5Z" stroke="black" stroke-width="1.5"/>
<path d="M8 15.5C8 17.433 6.433 19 4.5 19C2.567 19 1 17.433 1 15.5C1 13.567 2.567 12 4.5 12C6.433 12 8 13.567 8 15.5Z" stroke="black" stroke-width="1.5"/>
</svg>
