<svg width="48" height="48" viewBox="0 0 48 48" fill="none" xmlns="http://www.w3.org/2000/svg">
<path d="M15.36 3.83984C13.84 3.83984 12.5778 4.44441 11.7619 5.36234C10.9459 6.28028 10.56 7.46651 10.56 8.63984C10.56 9.81318 10.9459 10.9994 11.7619 11.9173C12.5778 12.8353 13.84 13.4398 15.36 13.4398C16.88 13.4398 18.1422 12.8353 18.9581 11.9173C19.7741 10.9994 20.16 9.81318 20.16 8.63984C20.16 7.46651 19.7741 6.28028 18.9581 5.36234C18.1422 4.44441 16.88 3.83984 15.36 3.83984ZM15.36 5.75984C16.4 5.75984 17.0578 6.11528 17.5219 6.63734C17.9859 7.15941 18.24 7.89318 18.24 8.63984C18.24 9.38651 17.9859 10.1203 17.5219 10.6423C17.0578 11.1644 16.4 11.5198 15.36 11.5198C14.32 11.5198 13.6622 11.1644 13.1981 10.6423C12.7341 10.1203 12.48 9.38651 12.48 8.63984C12.48 7.89318 12.7341 7.15941 13.1981 6.63734C13.6622 6.11528 14.32 5.75984 15.36 5.75984ZM10.3744 13.2767C10.1509 13.2761 9.92888 13.2899 9.70874 13.3198C7.94767 13.5591 6.2837 14.7811 5.69437 16.7548V16.7567L3.11249 25.4136L3.05437 25.6048C3.05239 25.6129 3.05051 25.6211 3.04874 25.6292C2.42284 27.9282 3.65541 30.2295 5.75999 31.1755V41.7598C5.75999 42.7998 6.18456 43.702 6.83249 44.278C7.48043 44.8539 8.30666 45.1198 9.11999 45.1198C9.93333 45.1198 10.7596 44.8539 11.4075 44.278C12.0554 43.702 12.48 42.7998 12.48 41.7598V27.5567L13.2862 25.0198L16.2075 27.9411C17.3216 29.0577 19.1584 29.0577 20.2725 27.9411L20.2744 27.9392C20.8111 27.3984 21.1154 26.6687 21.12 25.9067C21.12 25.9036 21.12 25.9005 21.12 25.8973C21.1179 25.134 20.8109 24.4022 20.2687 23.8648L20.2744 23.8686L17.3887 20.9755L14.7619 16.0573L14.76 16.0536C14.754 16.0416 14.7477 16.0297 14.7412 16.018L14.7375 16.0123L14.5387 15.6336C14.504 15.5683 14.4619 15.5073 14.4131 15.4517C13.4484 14.0027 11.8983 13.2808 10.3744 13.2767ZM10.3744 15.193C11.3246 15.1858 12.2592 15.6127 12.8662 16.5805C12.8936 16.6235 12.9243 16.6642 12.9581 16.7023C12.9587 16.7042 12.9594 16.7061 12.96 16.708L12.9075 16.6555L13.0406 16.9105C13.0419 16.9123 13.0431 16.9142 13.0444 16.9161C13.0456 16.9186 13.0469 16.9211 13.0481 16.9236L15.7612 22.0048C15.8056 22.0876 15.8618 22.1634 15.9281 22.2298L18.9131 25.2242L18.9169 25.228C19.0961 25.4056 19.1963 25.647 19.1981 25.8992C19.1954 26.1577 19.0934 26.4038 18.9112 26.5873C18.5311 26.9664 17.9463 26.9658 17.5669 26.5855H17.565L14.0306 23.0511L13.8619 22.7286V22.7267C13.8246 22.5863 13.7561 22.4562 13.6612 22.3461L11.4112 18.0355C11.3529 17.9237 11.2731 17.8245 11.1764 17.7435C11.0797 17.6625 10.968 17.6014 10.8477 17.5636C10.7274 17.5258 10.6008 17.5121 10.4752 17.5232C10.3496 17.5344 10.2274 17.5701 10.1156 17.6285C10.0038 17.6869 9.90457 17.7667 9.82363 17.8634C9.74268 17.9601 9.68157 18.0718 9.64379 18.1921C9.60601 18.3124 9.5923 18.439 9.60345 18.5646C9.61459 18.6902 9.65037 18.8124 9.70874 18.9242L11.8856 23.0923L10.605 27.1161C10.575 27.2107 10.5598 27.3094 10.56 27.4086V41.7598C10.56 42.3198 10.3846 42.6177 10.1325 42.8417C9.88043 43.0658 9.50666 43.1998 9.11999 43.1998C8.73333 43.1998 8.35956 43.0658 8.10749 42.8417C7.85543 42.6177 7.67999 42.3198 7.67999 41.7598V30.5942C7.67998 30.3811 7.60903 30.174 7.47833 30.0056C7.34763 29.8372 7.16461 29.7171 6.95812 29.6642C5.3952 29.265 4.47751 27.6901 4.90124 26.1336L4.95187 25.9648V25.963L7.53374 17.3042C7.90727 16.0532 8.88358 15.3702 9.96749 15.223C10.103 15.2046 10.2386 15.194 10.3744 15.193ZM39.36 18.2398C37.84 18.2398 36.5778 18.8444 35.7619 19.7623C34.9459 20.6803 34.56 21.8665 34.56 23.0398C34.56 24.2132 34.9459 25.3994 35.7619 26.3173C36.5778 27.2353 37.84 27.8398 39.36 27.8398C40.88 27.8398 42.1422 27.2353 42.9581 26.3173C43.7741 25.3994 44.16 24.2132 44.16 23.0398C44.16 21.8665 43.7741 20.6803 42.9581 19.7623C42.1422 18.8444 40.88 18.2398 39.36 18.2398ZM39.36 20.1598C40.4 20.1598 41.0578 20.5153 41.5219 21.0373C41.9859 21.5594 42.24 22.2932 42.24 23.0398C42.24 23.7865 41.9859 24.5203 41.5219 25.0423C41.0578 25.5644 40.4 25.9198 39.36 25.9198C38.32 25.9198 37.6622 25.5644 37.1981 25.0423C36.7341 24.5203 36.48 23.7865 36.48 23.0398C36.48 22.2932 36.7341 21.5594 37.1981 21.0373C37.6622 20.5153 38.32 20.1598 39.36 20.1598ZM24.8962 26.8667C23.562 26.8916 22.3686 27.8632 22.125 29.2236C21.8428 30.7727 22.8785 32.2813 24.4256 32.5742L24.4294 32.5761L31.9725 33.9842L30.555 36.1911L30.2325 35.9155L30.2306 35.9136C29.0525 34.9059 27.57 34.4713 26.13 34.5823C24.69 34.6934 23.2921 35.3502 22.2825 36.5267L20.6775 38.3998H17.6794C15.9344 38.3619 14.4227 39.6504 14.1825 41.3792C14.1804 41.3904 14.1785 41.4017 14.1769 41.413C13.9732 43.3797 15.5428 45.119 17.52 45.1198H33.6C35.2329 45.1206 36.7562 44.2855 37.635 42.9092C37.6363 42.9073 37.6375 42.9055 37.6387 42.9036L39.36 40.1586V42.1123C39.3282 43.6197 40.4566 44.9216 41.9531 45.1048C41.9662 45.1064 41.9793 45.1076 41.9925 45.1086C43.655 45.2443 45.1085 43.9154 45.12 42.2473C45.12 42.2448 45.12 42.2423 45.12 42.2398V37.273C45.1187 36.5815 44.969 35.8973 44.6812 35.2686C44.0084 33.7872 42.6635 30.8084 40.6125 29.4411C40.6002 29.4327 40.5877 29.4246 40.575 29.4167C40.0038 29.0724 39.3879 28.8592 38.7637 28.768C38.0816 28.6682 37.3908 28.7181 36.735 28.8992L25.4756 26.9155H25.4737C25.2797 26.8788 25.0869 26.8632 24.8962 26.8667ZM25.1175 28.8017C25.1212 28.8024 25.125 28.803 25.1287 28.8036L34.3181 30.4236C34.1602 30.6074 34.0135 30.8049 33.8812 31.0161L33.0937 32.2405L24.7837 30.688H24.7819C24.2506 30.5865 23.9162 30.099 24.0131 29.5667V29.563C24.1068 29.0349 24.5906 28.7016 25.1175 28.8017ZM37.9012 30.6317C38.4637 30.6089 39.0406 30.7488 39.5644 31.0592C40.7219 31.847 42.308 34.6878 42.9337 36.0655L42.9356 36.0673C43.1091 36.4465 43.1992 36.8579 43.2 37.2748V42.2323C43.1961 42.8041 42.7355 43.2219 42.1687 43.1886C41.6464 43.1132 41.2688 42.6822 41.28 42.1517C41.2801 42.1455 41.2801 42.1392 41.28 42.133V38.3998C41.2797 38.2392 41.239 38.0813 41.1619 37.9405L40.7025 37.0948L39.7219 35.3005C39.6651 35.1837 39.5851 35.0797 39.487 34.9947C39.3888 34.9097 39.2744 34.8455 39.1507 34.806C39.027 34.7665 38.8966 34.7524 38.7673 34.7648C38.6381 34.7771 38.5127 34.8155 38.3987 34.8777C38.2847 34.9399 38.1845 35.0246 38.1042 35.1266C38.0239 35.2287 37.9651 35.3459 37.9314 35.4713C37.8977 35.5967 37.8897 35.7277 37.9081 35.8562C37.9264 35.9848 37.9707 36.1083 38.0381 36.2192L38.7469 37.5205L36.0169 41.8761C35.4896 42.7018 34.5797 43.2003 33.6 43.1998H17.52C16.6566 43.1995 16.0153 42.4833 16.0931 41.6267C16.21 40.8581 16.8584 40.3029 17.6381 40.3198C17.645 40.3199 17.6519 40.3199 17.6587 40.3198H29.7412C29.9162 40.3197 30.0878 40.2718 30.2375 40.1813C30.3872 40.0907 30.5093 39.961 30.5906 39.8061C30.5906 39.8061 31.0207 39.0081 31.1737 38.7786C31.1763 38.7742 31.1788 38.7699 31.1812 38.7655L31.4794 38.3023C31.5581 38.218 31.621 38.1202 31.665 38.0136L35.5012 32.0455C35.5038 32.0424 35.5063 32.0392 35.5087 32.0361C35.893 31.4224 36.4632 31.0075 37.095 30.7948L37.0969 30.793C37.1801 30.7651 37.261 30.729 37.3462 30.7086C37.5282 30.6651 37.7137 30.6393 37.9012 30.6317ZM26.2762 36.4836C27.2228 36.4104 28.1976 36.7015 28.9819 37.3723L29.5106 37.828C29.3876 38.0252 29.2992 38.1873 29.1844 38.3998H23.2069L23.7394 37.7773C24.4115 36.9942 25.3297 36.5568 26.2762 36.4836Z" fill="#303864"/>
</svg>
