<svg width="32" height="32" viewBox="0 0 32 32" fill="none" xmlns="http://www.w3.org/2000/svg">
<path d="M15.5907 21.015L6.66667 14.0741V6.66667C6.66667 5.19391 7.86057 4 9.33333 4H22.6667C24.1394 4 25.3333 5.19391 25.3333 6.66667V14.0741L16.4093 21.015M15.5907 21.015C15.8314 21.2022 16.1686 21.2022 16.4093 21.015M15.5907 21.015L5.07596 12.8369C4.63806 12.4963 4 12.8083 4 13.3631V25.3333C4 26.8061 5.19391 28 6.66667 28H25.3333C26.8061 28 28 26.8061 28 25.3333V13.3631C28 12.8083 27.3619 12.4963 26.924 12.8369L16.4093 21.015M8.57161 24.6665L13.7145 19.8665M18.2859 19.8665L23.4288 24.6665M12.0318 9.9298L12.0591 9.76887C12.2445 8.67601 13.2567 7.9085 14.3802 8.0088C14.7034 8.03766 15.0158 8.1378 15.294 8.30176L15.8691 8.64066C15.9497 8.68812 16.0503 8.68812 16.1309 8.64066L16.706 8.30176C16.9842 8.1378 17.2966 8.03766 17.6198 8.0088C18.7433 7.9085 19.7555 8.67601 19.9409 9.76887L19.9682 9.9298C20.0308 10.2986 20.0006 10.6769 19.8802 11.0317L19.8321 11.1735C19.6874 11.5998 19.4436 11.9871 19.1201 12.3049L18.4833 12.9303L16.5718 14.4662C16.2392 14.7335 15.7608 14.7335 15.4282 14.4662L13.5167 12.9303L12.8799 12.3049C12.5564 11.9871 12.3126 11.5998 12.1679 11.1735L12.1198 11.0317C11.9994 10.6769 11.9692 10.2986 12.0318 9.9298Z" stroke="white" stroke-width="1.5" stroke-linecap="round"/>
</svg>
