<svg width="48" height="48" viewBox="0 0 48 48" fill="none" xmlns="http://www.w3.org/2000/svg">
<path d="M24 0C21.645 0 19.6575 1.30125 16.71 2.82C13.7625 4.33875 9.80626 6.1725 3.63 7.53L2.88 7.71V8.46C2.88 23.1675 8.03626 32.9962 13.2 39.09C18.3638 45.1837 23.61 47.61 23.61 47.61L24.03 47.82L24.45 47.61C24.45 47.61 45.12 36.93 45.12 8.46V7.71L44.37 7.53C38.1938 6.1725 34.2375 4.33875 31.29 2.82C28.3425 1.30125 26.355 0 24 0ZM24 1.92C25.5788 1.92 27.4088 2.98125 30.42 4.53C33.2813 6 37.305 7.80375 43.14 9.18C42.7875 35.2125 25.2038 44.9775 23.97 45.63C23.3738 45.3412 19.2188 43.2637 14.64 37.86C9.81375 32.1637 5.03626 23.0025 4.86 9.18C10.695 7.80375 14.7188 6 17.58 4.53C20.5913 2.98125 22.4213 1.92 24 1.92ZM31.38 14.04L30.87 14.85L23.07 26.97L17.91 22.32L17.22 21.69L15.93 23.1L16.65 23.76L22.59 29.16L23.43 29.91L24.06 28.95L32.49 15.87L33 15.06L31.38 14.04Z" fill="#303864"/>
</svg>
