<svg width="49" height="48" viewBox="0 0 49 48" fill="none" xmlns="http://www.w3.org/2000/svg">
<path d="M24.3333 7.67969C20.9283 7.67969 18.6971 7.90844 17.2833 8.15969C15.9521 8.39594 15.3746 8.66969 15.3033 8.69969C15.2996 8.70344 15.1833 8.72969 15.1833 8.72969C13.7621 9.20969 11.5983 9.86969 10.5933 11.8197C10.3496 12.2922 9.98584 13.2522 9.45334 14.6097C9.04459 15.6522 8.56459 16.9684 8.07334 18.2397H5.22334C3.79834 18.2397 2.74084 18.7159 2.10333 19.4397C1.46584 20.1634 1.29333 21.0222 1.29333 21.6897C1.29333 22.4359 1.68333 23.1822 2.28334 23.5497C2.88334 23.9172 3.55459 23.9997 4.26334 23.9997H5.85334C5.70334 24.4009 5.19334 25.7397 5.19334 25.7397L5.13334 25.9197V37.4397C5.13334 39.0184 6.43459 40.3197 8.01334 40.3197H11.8533C13.4321 40.3197 14.7333 39.0184 14.7333 37.4397V36.4797H33.9333V37.4397C33.9333 39.0184 35.2346 40.3197 36.8133 40.3197H40.6533C42.2321 40.3197 43.5333 39.0184 43.5333 37.4397V25.9197L43.4733 25.7397C43.4733 25.7397 42.9708 24.4047 42.8133 23.9997H44.4033C45.1121 23.9997 45.7833 23.9172 46.3833 23.5497C46.9833 23.1822 47.3733 22.4359 47.3733 21.6897C47.3733 21.0222 47.2008 20.1634 46.5633 19.4397C45.9258 18.7159 44.8683 18.2397 43.4433 18.2397H40.5933C40.5333 18.0972 40.4733 17.9584 40.4433 17.8797C39.4046 15.1947 38.4033 12.6372 38.0433 11.8197C37.1246 9.73094 34.7621 9.08969 33.4833 8.72969C33.4421 8.71844 33.3708 8.68094 33.3333 8.66969V8.69969C33.2433 8.66219 32.6958 8.39594 31.3833 8.15969C29.9696 7.90844 27.7383 7.67969 24.3333 7.67969ZM24.3333 9.59969C27.6483 9.59969 29.7783 9.85094 31.0533 10.0797C32.3283 10.3084 32.6433 10.4697 32.6433 10.4697L32.7333 10.4997L32.7933 10.5297C33.9633 10.8634 35.8496 11.6322 36.2733 12.5997C36.5508 13.2297 37.6421 16.0384 38.6433 18.5997C38.8833 19.2109 39.2846 20.2084 39.1533 20.8197C39.0858 21.1272 38.9696 21.3484 38.5233 21.5997C38.0771 21.8509 37.2371 22.0797 35.8533 22.0797H12.8133C11.4296 22.0797 10.5896 21.8509 10.1433 21.5997C9.69709 21.3484 9.58084 21.1272 9.51334 20.8197C9.38209 20.2084 9.78334 19.2109 10.0233 18.5997L9.96334 18.5697C10.4021 17.4259 10.8521 16.2409 11.2233 15.2997C11.7521 13.9534 12.2246 12.8734 12.3033 12.7197C12.8358 11.6847 14.4971 10.9797 15.9033 10.4997H15.9633L16.0233 10.4697C16.0233 10.4697 16.3383 10.3084 17.6133 10.0797C18.8883 9.85094 21.0183 9.59969 24.3333 9.59969ZM5.22334 20.1597H7.29334C6.92959 21.1159 6.86584 21.3034 6.57334 22.0797H4.26334C3.72708 22.0797 3.39334 21.9859 3.30334 21.9297C3.21334 21.8734 3.21334 21.9597 3.21334 21.6897C3.21334 21.3409 3.31084 20.9622 3.54334 20.6997C3.77584 20.4372 4.18084 20.1597 5.22334 20.1597ZM41.3133 20.1597H43.4433C44.4858 20.1597 44.8908 20.4372 45.1233 20.6997C45.3558 20.9622 45.4533 21.3409 45.4533 21.6897C45.4533 21.9597 45.4533 21.8734 45.3633 21.9297C45.2733 21.9859 44.9396 22.0797 44.4033 22.0797H42.0633C41.7558 21.2922 41.6883 21.1309 41.3133 20.1597ZM8.43334 22.6497C8.65459 22.8822 8.90959 23.1072 9.21334 23.2797C10.0796 23.7672 11.2271 23.9997 12.8133 23.9997H35.8533C37.4396 23.9997 38.5871 23.7672 39.4533 23.2797C39.7571 23.1072 40.0121 22.8822 40.2333 22.6497C40.7958 24.1272 41.5796 26.1972 41.6133 26.2797V33.7497C41.6133 34.1997 41.2383 34.5597 40.7433 34.5597H7.92334C7.42834 34.5597 7.05334 34.1997 7.05334 33.7497V26.2797C7.08334 26.1972 7.88584 24.1122 8.43334 22.6497ZM10.8933 24.9597C9.31459 24.9597 8.01334 26.2609 8.01334 27.8397C8.01334 28.6909 8.36584 29.4484 8.85334 29.9697C9.34084 30.4909 9.92959 30.8434 10.5033 31.1697C11.3171 31.6309 11.8721 31.9834 12.5133 32.2497C13.1546 32.5159 13.8446 32.6397 14.7333 32.6397C16.8408 32.6397 18.5733 30.9109 18.5733 28.7997C18.5733 26.6884 16.8408 24.9597 14.7333 24.9597H10.8933ZM33.9333 24.9597C31.8258 24.9597 30.0933 26.6884 30.0933 28.7997C30.0933 30.9109 31.8258 32.6397 33.9333 32.6397C34.8221 32.6397 35.5121 32.5159 36.1533 32.2497C36.7946 31.9834 37.3496 31.6309 38.1633 31.1697C38.7371 30.8434 39.3258 30.4909 39.8133 29.9697C40.3008 29.4484 40.6533 28.6909 40.6533 27.8397C40.6533 26.2609 39.3521 24.9597 37.7733 24.9597H33.9333ZM10.8933 26.8797H14.7333C15.8058 26.8797 16.6533 27.7272 16.6533 28.7997C16.6533 29.8722 15.8058 30.7197 14.7333 30.7197C14.0133 30.7197 13.6571 30.6559 13.2333 30.4797C12.8096 30.3034 12.2808 29.9697 11.4333 29.4897C10.8933 29.1859 10.4958 28.8972 10.2633 28.6497C10.0308 28.4022 9.93334 28.2409 9.93334 27.8397C9.93334 27.2997 10.3533 26.8797 10.8933 26.8797ZM33.9333 26.8797H37.7733C38.3133 26.8797 38.7333 27.2997 38.7333 27.8397C38.7333 28.2409 38.6358 28.4022 38.4033 28.6497C38.1708 28.8972 37.7733 29.1859 37.2333 29.4897C36.3858 29.9697 35.8571 30.3034 35.4333 30.4797C35.0096 30.6559 34.6533 30.7197 33.9333 30.7197C32.8608 30.7197 32.0133 29.8722 32.0133 28.7997C32.0133 27.7272 32.8608 26.8797 33.9333 26.8797ZM7.05334 36.3297C7.33084 36.4197 7.61959 36.4797 7.92334 36.4797H12.8133V37.4397C12.8133 37.9797 12.3933 38.3997 11.8533 38.3997H8.01334C7.47334 38.3997 7.05334 37.9797 7.05334 37.4397V36.3297ZM41.6133 36.3297V37.4397C41.6133 37.9797 41.1933 38.3997 40.6533 38.3997H36.8133C36.2733 38.3997 35.8533 37.9797 35.8533 37.4397V36.4797H40.7433C41.0471 36.4797 41.3358 36.4197 41.6133 36.3297Z" fill="#303864"/>
</svg>
