<svg width="49" height="48" viewBox="0 0 49 48" fill="none" xmlns="http://www.w3.org/2000/svg">
<path d="M14.1066 1.91992C11.4666 1.91992 9.3066 4.07992 9.3066 6.71992C9.3066 9.35992 11.4666 11.5199 14.1066 11.5199C16.7466 11.5199 18.9066 9.35992 18.9066 6.71992C18.9066 4.07992 16.7466 1.91992 14.1066 1.91992ZM34.2666 1.91992C31.6266 1.91992 29.4666 4.07992 29.4666 6.71992C29.4666 9.35992 31.6266 11.5199 34.2666 11.5199C36.9066 11.5199 39.0666 9.35992 39.0666 6.71992C39.0666 4.07992 36.9066 1.91992 34.2666 1.91992ZM14.1066 3.83992C15.7079 3.83992 16.9866 5.11867 16.9866 6.71992C16.9866 8.32117 15.7079 9.59992 14.1066 9.59992C12.5054 9.59992 11.2266 8.32117 11.2266 6.71992C11.2266 5.11867 12.5054 3.83992 14.1066 3.83992ZM34.2666 3.83992C35.8679 3.83992 37.1466 5.11867 37.1466 6.71992C37.1466 8.32117 35.8679 9.59992 34.2666 9.59992C32.6654 9.59992 31.3866 8.32117 31.3866 6.71992C31.3866 5.11867 32.6654 3.83992 34.2666 3.83992ZM9.7866 12.4799C6.8841 12.4799 4.5066 14.8574 4.5066 17.7599V29.5799C4.4991 29.6399 4.4991 29.6999 4.5066 29.7599C4.50285 29.8499 4.5141 29.9437 4.5366 30.0299C4.6791 31.4812 5.9016 32.6399 7.3866 32.6399C7.7241 32.6399 8.04285 32.5687 8.3466 32.4599V43.5299C8.3466 44.9324 9.4941 46.0799 10.8966 46.0799H12.5166C13.1354 46.0799 13.6604 45.7912 14.1066 45.4199C14.5529 45.7912 15.0779 46.0799 15.6966 46.0799H17.3166C18.7191 46.0799 19.8666 44.9324 19.8666 43.5299V37.2599C20.1704 37.3687 20.4891 37.4399 20.8266 37.4399V43.6799C20.8266 44.9924 21.9141 46.0799 23.2266 46.0799H26.1066C27.4191 46.0799 28.5066 44.9924 28.5066 43.6799V37.4399C28.8441 37.4399 29.1629 37.3687 29.4666 37.2599V43.1999C29.4666 44.7787 30.7679 46.0799 32.3466 46.0799C33.0816 46.0799 33.7566 45.7912 34.2666 45.3299C34.7766 45.7912 35.4516 46.0799 36.1866 46.0799C37.7654 46.0799 39.0666 44.7787 39.0666 43.1999V35.5199H41.5566C42.1866 35.5199 42.7829 35.1937 43.1166 34.6799C43.1166 34.6687 43.1166 34.6612 43.1166 34.6499C43.4504 34.1324 43.5254 33.5137 43.3566 32.9399C43.3566 32.9287 43.3566 32.9212 43.3566 32.9099L42.9666 31.6799C43.9379 31.6799 44.8154 31.2074 45.2766 30.4499C45.7379 29.6924 45.8091 28.7474 45.5166 27.8399C44.6354 25.1174 41.6466 16.0199 41.6466 16.0199C41.4666 15.4649 41.1291 14.6437 40.4166 13.8899C39.7041 13.1362 38.5791 12.4799 37.1466 12.4799H35.2866C35.2679 12.4799 35.2454 12.4799 35.2266 12.4799H31.3866C29.9504 12.4799 28.8291 13.1362 28.1166 13.8899C27.7529 14.2799 27.7716 14.8912 28.1616 15.2549C28.5516 15.6187 29.1629 15.5999 29.5266 15.2099C29.9616 14.7449 30.4979 14.3999 31.3866 14.3999H35.2266C35.2566 14.3999 35.2866 14.3999 35.3166 14.3999H37.1466C38.0316 14.3999 38.5716 14.7487 39.0066 15.2099C39.4416 15.6712 39.7379 16.2787 39.8466 16.6199C39.8466 16.6199 42.8054 25.6949 43.6866 28.4099C43.8404 28.8824 43.7766 29.2349 43.6566 29.4299C43.5366 29.6249 43.3791 29.7599 42.9666 29.7599C42.5691 29.7599 42.2241 29.5012 42.0966 29.1599C42.0929 29.1524 42.1004 29.1374 42.0966 29.1299C42.0816 29.0362 42.0516 28.9462 42.0066 28.8599L39.3366 20.8199C39.1941 20.3737 38.7516 20.0924 38.2866 20.1599C38.0016 20.1974 37.7504 20.3624 37.6004 20.6062C37.4466 20.8499 37.4129 21.1499 37.5066 21.4199L40.2066 29.5199C40.2254 29.6024 40.2554 29.6849 40.2966 29.7599L41.5266 33.5099V33.5399C41.5304 33.5699 41.5004 33.5849 41.4966 33.5999H34.3266C34.3079 33.5999 34.2854 33.5999 34.2666 33.5999H31.3866V27.8399C31.3866 25.7287 29.6579 23.9999 27.5466 23.9999H21.7866C19.6754 23.9999 17.9466 25.7287 17.9466 27.8399V29.6099C17.9466 29.6399 17.9466 29.6699 17.9466 29.6999V43.5299C17.9466 43.8974 17.6804 44.1599 17.3166 44.1599H15.6966C15.3291 44.1599 15.0666 43.8974 15.0666 43.5299V31.3499C15.0704 31.0724 14.9504 30.8099 14.7441 30.6262C14.5379 30.4424 14.2604 30.3562 13.9866 30.3899C13.5029 30.4499 13.1429 30.8624 13.1466 31.3499V43.5299C13.1466 43.8974 12.8804 44.1599 12.5166 44.1599H10.8966C10.5291 44.1599 10.2666 43.8974 10.2666 43.5299V20.1599C10.2779 19.8824 10.1654 19.6162 9.9666 19.4287C9.7641 19.2374 9.49035 19.1437 9.2166 19.1699C9.17535 19.1774 9.1341 19.1887 9.0966 19.1999C8.65035 19.3012 8.33535 19.7024 8.3466 20.1599V29.6099C8.3466 29.6399 8.3466 29.6699 8.3466 29.6999V29.7599C8.3466 30.3037 7.93035 30.7199 7.3866 30.7199C6.86535 30.7199 6.4566 30.3337 6.4266 29.8199C6.4266 29.8012 6.4266 29.7787 6.4266 29.7599C6.4341 29.6999 6.4341 29.6399 6.4266 29.5799V17.7599C6.4266 15.8999 7.92285 14.3999 9.7866 14.3999H18.4266C19.1466 14.3999 19.8029 14.6174 20.3466 14.9999C20.6241 15.2324 21.0066 15.2887 21.3366 15.1462C21.6704 15.0037 21.8954 14.6887 21.9179 14.3287C21.9441 13.9687 21.7641 13.6274 21.4566 13.4399C20.6016 12.8399 19.5479 12.4799 18.4266 12.4799H9.7866ZM24.6666 15.3599C22.5554 15.3599 20.8266 17.0887 20.8266 19.1999C20.8266 21.3112 22.5554 23.0399 24.6666 23.0399C26.7779 23.0399 28.5066 21.3112 28.5066 19.1999C28.5066 17.0887 26.7779 15.3599 24.6666 15.3599ZM24.6666 17.2799C25.7391 17.2799 26.5866 18.1274 26.5866 19.1999C26.5866 20.2724 25.7391 21.1199 24.6666 21.1199C23.5941 21.1199 22.7466 20.2724 22.7466 19.1999C22.7466 18.1274 23.5941 17.2799 24.6666 17.2799ZM21.7866 25.9199H27.5466C28.6191 25.9199 29.4666 26.7674 29.4666 27.8399V34.3799C29.4666 34.4099 29.4666 34.4399 29.4666 34.4699V34.5599C29.4666 35.1037 29.0504 35.5199 28.5066 35.5199H27.5466C27.0179 35.5199 26.5866 35.9512 26.5866 36.4799V43.6799C26.5866 43.9537 26.3804 44.1599 26.1066 44.1599H23.2266C22.9529 44.1599 22.7466 43.9537 22.7466 43.6799V36.4799C22.7466 35.9512 22.3154 35.5199 21.7866 35.5199H20.8266C20.2829 35.5199 19.8666 35.1037 19.8666 34.5599V27.8399C19.8666 26.7674 20.7141 25.9199 21.7866 25.9199ZM31.3866 35.5199H33.3066V43.1999C33.3066 43.7437 32.8904 44.1599 32.3466 44.1599C31.8029 44.1599 31.3866 43.7437 31.3866 43.1999V35.5199ZM35.2266 35.5199H37.1466V43.1999C37.1466 43.7437 36.7304 44.1599 36.1866 44.1599C35.6429 44.1599 35.2266 43.7437 35.2266 43.1999V35.5199Z" fill="#303864"/>
</svg>
