<svg width="50" height="50" viewBox="0 0 50 50" fill="none" xmlns="http://www.w3.org/2000/svg">
<path d="M16.5264 10.3935C18.886 10.3935 20.7988 8.48068 20.7988 6.12108C20.7988 3.76147 18.886 1.84863 16.5264 1.84863C14.1667 1.84863 12.2539 3.76147 12.2539 6.12108C12.2539 8.48068 14.1667 10.3935 16.5264 10.3935Z" fill="#336699"/>
<path d="M36.2878 8.84946C38.7315 8.84946 40.7125 6.86844 40.7125 4.42473C40.7125 1.98102 38.7315 0 36.2878 0C33.8441 0 31.863 1.98102 31.863 4.42473C31.863 6.86844 33.8441 8.84946 36.2878 8.84946Z" fill="#336699"/>
<path d="M46.7944 26.851V12.5143C46.7944 12.5108 46.7944 12.5072 46.7944 12.5038C46.7807 9.80448 44.5651 7.6084 41.8554 7.6084H40.9072C39.8935 9.07484 38.2014 10.038 36.2878 10.038C34.3742 10.038 32.682 9.07474 31.6683 7.6084H30.7781C28.0364 7.6084 25.7949 9.80448 25.7813 12.5039V12.5143V16.3499C25.3487 15.1328 24.9504 14.0006 24.638 13.0916C23.8709 10.8593 22.6767 9.53247 21.0801 9.13064C20.1015 10.6066 18.426 11.5822 16.5263 11.5822C14.6225 11.5822 12.944 10.6022 11.9663 9.12083C10.3496 9.51031 9.14165 10.8405 8.36808 13.0914C7.07539 16.8529 4.31479 24.4295 3.71939 26.0612C2.16214 26.2262 0.944763 27.5472 0.944763 29.1475V31.7857C0.944763 32.3132 1.34278 32.7738 1.86905 32.8079C2.44582 32.8453 2.92542 32.3885 2.92542 31.8197V29.1475C2.92542 28.6318 3.27509 28.1974 3.74939 28.066C3.97679 28.4631 4.3395 28.7857 4.80292 28.9551C4.92323 28.9992 5.04512 29.0296 5.1671 29.0498C5.16994 29.0821 5.1721 29.1146 5.1721 29.1476V48.9758C5.1721 49.5033 5.57012 49.9639 6.09649 49.998C6.67326 50.0354 7.15286 49.5786 7.15286 49.0098V29.1475C7.15286 28.8689 7.1154 28.5991 7.04627 28.3421C7.18659 28.1714 7.30259 27.9761 7.3828 27.7568C7.41084 27.6802 9.76912 21.2277 11.38 16.6675L8.52301 31.6454C8.38906 32.3373 8.9222 32.9765 9.61997 32.9765H11.1548V47.5119C11.1548 48.8649 12.2621 50.0051 13.615 49.9794C14.9264 49.9546 15.982 48.8837 15.982 47.5662V32.9765H17.024V47.5119C17.024 48.8649 18.1313 50.0051 19.4842 49.9794C20.7957 49.9546 21.8512 48.8837 21.8512 47.5662V32.9765H23.386C24.0861 32.9765 24.617 32.3378 24.483 31.6454L21.6262 16.6675C21.6262 16.6675 23.6957 22.312 25.8023 28.0489C26.6241 30.2867 29.9395 29.6974 29.9395 27.3134V12.5216C29.9435 12.126 30.3448 11.7665 30.7808 11.7665V47.4166C30.7808 48.8157 31.9258 49.9951 33.3247 49.9692C34.6808 49.9441 35.7725 48.8368 35.7725 47.4747V27.5327H36.8495V47.4184C36.8495 48.8217 37.9981 50.0001 39.401 49.969C40.7525 49.939 41.8297 48.8337 41.8297 47.4747V11.7665C42.2494 11.7665 42.632 12.1116 42.6364 12.5209V27.7884C42.6364 28.2123 42.7639 28.606 42.9816 28.9346C42.8946 29.2205 42.8473 29.5236 42.8473 29.8375V48.9735C42.8473 49.5009 43.2453 49.9615 43.7716 49.9956C44.3484 50.033 44.828 49.5762 44.828 49.0074V29.8618C45.5377 29.8237 46.1514 29.431 46.4967 28.8565C46.841 29.0486 47.0745 29.4162 47.0745 29.8375V32.4758C47.0745 33.0032 47.4726 33.4638 47.9988 33.4979C48.5756 33.5354 49.0552 33.0786 49.0552 32.5097V29.8375C49.0552 28.4183 48.0973 27.2194 46.7944 26.851Z" fill="#336699"/>
</svg>
