<svg width="16" height="16" viewBox="0 0 16 16" fill="none" xmlns="http://www.w3.org/2000/svg">
<g clip-path="url(#clip0_637_2913)">
<path d="M14.619 0.604492H7.01877C6.82933 0.604492 6.67578 0.75804 6.67578 0.947478V3.61999L7.05617 3.38381C7.15296 3.32368 7.25634 3.28312 7.36172 3.26083V1.29046H14.276V6.23713H7.36175V5.43678L6.67578 5.8627V6.58015C6.67578 6.76959 6.82933 6.92313 7.01877 6.92313H14.619C14.8084 6.92313 14.962 6.76959 14.962 6.58015V0.947478C14.962 0.75804 14.8084 0.604492 14.619 0.604492Z" fill="white"/>
<path d="M9.6324 2.5082C9.54216 2.39376 9.37628 2.37419 9.26187 2.46436L8.08044 3.39588C8.19325 3.46961 8.2922 3.56838 8.36797 3.6904C8.38946 3.72493 8.4081 3.76045 8.42467 3.79646L9.58859 2.87873C9.70304 2.78852 9.72264 2.62261 9.6324 2.5082Z" fill="white"/>
<path d="M3.92997 2.06039C4.4752 2.06039 4.9172 1.61839 4.9172 1.07316C4.9172 0.527933 4.4752 0.0859375 3.92997 0.0859375C3.38474 0.0859375 2.94275 0.527933 2.94275 1.07316C2.94275 1.61839 3.38474 2.06039 3.92997 2.06039Z" fill="white"/>
<path d="M7.96342 3.9417C7.82465 3.71823 7.53104 3.64954 7.3075 3.78828L6.34281 4.38723C6.33879 3.58721 6.34093 4.01178 6.33836 3.49658C6.33524 2.87815 5.82958 2.375 5.21113 2.375H4.74251C4.34215 3.41333 4.47112 3.02789 4.13129 3.90924L4.2742 3.28692C4.28409 3.2403 4.27692 3.19171 4.25395 3.14997L4.06031 2.79777L4.23216 2.48527C4.25778 2.43865 4.224 2.38152 4.17079 2.38152H3.69871C3.64554 2.38152 3.61169 2.43865 3.63735 2.48527L3.80954 2.79842L3.61552 3.15127C3.59302 3.19223 3.58566 3.23984 3.59475 3.28565L3.71856 3.90924C3.65182 3.73616 3.19043 2.53958 3.12697 2.375H2.64886C2.03043 2.375 1.52475 2.87812 1.52162 3.49658L1.50403 6.99599C1.50274 7.25907 1.7149 7.47339 1.97797 7.47472C1.9788 7.47472 1.97958 7.47472 1.98041 7.47472C2.24234 7.47472 2.45537 7.26302 2.45667 7.00078L2.47426 3.50137C2.47426 3.50081 2.47426 3.50025 2.47426 3.49973C2.475 3.44779 2.5175 3.40618 2.56944 3.40659C2.62137 3.40696 2.66323 3.44918 2.66323 3.50112L2.66345 8.45907C3.09951 8.44052 3.50355 8.59781 3.80666 8.87402V6.93982H4.05345V9.15858C4.22727 9.41417 4.32901 9.72254 4.32901 10.0543C4.32901 10.3565 4.24455 10.6394 4.09812 10.8806C4.24854 10.8813 4.39464 10.9013 4.53397 10.9382C4.7218 10.7752 4.94774 10.6553 5.19666 10.5939C5.19666 1.95844 5.1863 7.29768 5.1863 3.50177C5.1863 3.44677 5.23079 3.4022 5.28578 3.4021C5.34078 3.40198 5.38545 3.44637 5.3857 3.50137C5.38737 3.83545 5.39262 4.8798 5.39445 5.24338C5.39531 5.41584 5.48935 5.5744 5.6403 5.65784C5.79097 5.74112 5.97525 5.73679 6.12203 5.64566L7.81003 4.59759C8.03347 4.45888 8.1022 4.16517 7.96342 3.9417Z" fill="white"/>
<path d="M13.4416 11.1105C14.0187 11.1105 14.4865 10.6426 14.4865 10.0655C14.4865 9.48836 14.0187 9.02051 13.4416 9.02051C12.8645 9.02051 12.3966 9.48836 12.3966 10.0655C12.3966 10.6426 12.8645 11.1105 13.4416 11.1105Z" fill="white"/>
<path d="M15.9839 12.6311C15.9806 11.9764 15.4453 11.4438 14.7907 11.4438C14.5082 11.4438 12.4232 11.4438 12.1698 11.4438C12.2822 11.6623 12.3461 11.9097 12.3461 12.1719C12.3461 12.4502 12.2718 12.7411 12.1143 12.9998C12.6986 13.0234 13.2107 13.3371 13.51 13.8004H14.7644V12.6433C14.7644 12.5863 14.8095 12.5396 14.8665 12.5377C14.9234 12.5357 14.9716 12.5793 14.9755 12.6361V12.6361L14.9813 13.8004H15.9898L15.9839 12.6311Z" fill="white"/>
<path d="M9.15233 12.1716C9.15233 11.9048 9.21842 11.6534 9.33453 11.4321C8.65416 11.4321 7.85526 11.4321 7.00776 11.4321C7.11509 11.6466 7.17584 11.8883 7.17584 12.144C7.17584 12.4445 7.09145 12.7291 6.94495 12.9704C7.4259 12.9727 7.86963 13.1725 8.19024 13.5042C8.50104 13.2005 8.92471 13.0122 9.3908 13.0097C9.22897 12.7484 9.15233 12.4551 9.15233 12.1716Z" fill="white"/>
<path d="M8.35933 9.00928C7.78224 9.00928 7.31433 9.47706 7.31433 10.0542C7.31433 10.6301 7.78134 11.0992 8.35933 11.0992C8.93179 11.0992 9.40431 10.6366 9.40431 10.0542C9.40431 9.47771 8.93736 9.00928 8.35933 9.00928Z" fill="white"/>
<path d="M3.98188 12.1441C3.98188 11.889 4.04235 11.6479 4.14915 11.4338C4.10411 11.4315 4.29358 11.4322 1.38285 11.4322C0.731566 11.4322 0.192959 11.962 0.189651 12.6194L0.183716 13.8002C0.644544 13.8002 0.737254 13.8002 1.19215 13.8002L1.19805 12.6245C1.19836 12.5663 1.24569 12.5194 1.30387 12.5195C1.36205 12.5197 1.4091 12.5669 1.4091 12.6251V13.8002H2.82268C3.12734 13.3132 3.65117 13.0074 4.22131 12.9839C4.06655 12.7347 3.98188 12.4471 3.98188 12.1441Z" fill="white"/>
<path d="M2.73211 9.00928C2.15501 9.00928 1.68713 9.47712 1.68713 10.0542C1.68713 10.6287 2.15226 11.0992 2.73211 11.0992C3.30512 11.0992 3.77711 10.6351 3.77711 10.0542C3.77711 9.47709 3.30923 9.00928 2.73211 9.00928Z" fill="white"/>
<path d="M13.2349 14.7329C13.2316 14.0782 12.6964 13.5456 12.0417 13.5456C11.9723 13.5456 9.47683 13.5456 9.39837 13.5456C8.74375 13.5456 8.17417 14.0782 8.17086 14.7328L8.16236 14.7053C8.15911 14.0532 7.62628 13.5181 6.96918 13.5181C6.21044 13.5181 5.12071 13.5181 4.32586 13.5181C3.67123 13.5181 3.10165 14.0506 3.09834 14.7053L3.09241 15.9136H4.10084L4.10674 14.7103C4.10699 14.6602 4.14777 14.6198 4.19788 14.6199C4.24799 14.62 4.28852 14.6607 4.28852 14.7108V15.9136C4.87961 15.9136 6.40557 15.9136 6.9592 15.9136V14.7108C6.9592 14.6571 7.00263 14.6136 7.0563 14.6135C7.10993 14.6133 7.15365 14.6566 7.15392 14.7103L7.15983 15.9136C7.36599 15.9136 8.96017 15.9136 9.17335 15.9136L9.17926 14.7379V14.7378C9.17954 14.6877 9.22031 14.6473 9.27042 14.6474C9.32053 14.6476 9.36103 14.6882 9.36103 14.7383V15.9136C9.95213 15.9136 11.4781 15.9136 12.0317 15.9136V14.7383C12.0317 14.6847 12.0751 14.6412 12.1288 14.641C12.1824 14.6409 12.2262 14.6842 12.2264 14.7379L12.2323 15.9135H13.2408L13.2349 14.7329Z" fill="white"/>
<path d="M5.61163 13.1974C6.19549 13.1974 6.66881 12.7241 6.66881 12.1402C6.66881 11.5563 6.19549 11.083 5.61163 11.083C5.02776 11.083 4.55444 11.5563 4.55444 12.1402C4.55444 12.7241 5.02776 13.1974 5.61163 13.1974Z" fill="white"/>
<path d="M10.7475 13.2247C11.3314 13.2247 11.8047 12.7514 11.8047 12.1675C11.8047 11.5837 11.3314 11.1104 10.7475 11.1104C10.1636 11.1104 9.69031 11.5837 9.69031 12.1675C9.69031 12.7514 10.1636 13.2247 10.7475 13.2247Z" fill="white"/>
</g>
<defs>
<clipPath id="clip0_637_2913">
<rect width="15.8278" height="15.8278" fill="white" transform="translate(0.172852 0.0859375)"/>
</clipPath>
</defs>
</svg>
