<svg width="17" height="17" viewBox="0 0 17 17" fill="none" xmlns="http://www.w3.org/2000/svg">
<g clip-path="url(#clip0_637_2902)">
<path d="M11.6537 12.3448C11.6537 12.4167 11.6057 12.4887 11.5577 12.5366L11.9175 15.2709C11.9655 15.5827 11.7976 15.8945 11.5577 16.0624C11.6297 16.1344 12.2533 16.0384 12.3253 15.4628L12.733 12.1049C12.3732 12.0809 12.0374 12.033 11.7016 11.937L11.6537 12.3448Z" fill="white"/>
<path d="M14.6997 11.8174C14.268 11.9613 13.8123 12.0572 13.3566 12.0812L13.7643 15.4391C13.8842 16.3505 15.2274 16.1587 15.1315 15.2712L14.6997 11.8174Z" fill="white"/>
<path d="M4.36226 3.42253C5.09082 3.42253 5.68144 2.83191 5.68144 2.10335C5.68144 1.37479 5.09082 0.78418 4.36226 0.78418C3.6337 0.78418 3.04309 1.37479 3.04309 2.10335C3.04309 2.83191 3.6337 3.42253 4.36226 3.42253Z" fill="white"/>
<path d="M5.94528 13.1844C5.72941 13.0884 5.5855 12.9925 5.51355 12.9445L5.84934 11.2656C5.39362 11.6254 4.74603 11.0977 5.00986 10.546C5.00986 10.522 5.99324 8.55528 5.92129 8.6752C5.99324 8.55528 6.08918 8.43536 6.23309 8.38739C6.25708 8.02761 6.377 6.4446 6.377 6.56453C6.40099 6.68445 6.44896 6.78039 6.47294 6.90032C6.64084 6.6125 6.95264 6.42062 7.28843 6.42062C7.12054 5.82099 6.90467 5.24535 6.64084 4.64573C5.99324 3.23062 2.44347 3.54242 1.96377 4.66972C1.38813 6.01287 1.07633 7.30806 1.00437 8.55528C0.980386 9.1549 1.89182 9.20287 1.9158 8.60325C1.93979 7.93167 2.0837 7.23611 2.27557 6.51656L2.61136 10.9298C2.61136 11.0017 2.68332 11.0497 2.75527 11.0737L2.25159 15.2951C2.15565 16.1825 3.49881 16.3744 3.61873 15.463L4.12242 11.0737H4.50618L5.03385 15.439C5.1058 15.9906 5.77738 16.2305 6.16114 15.8707C6.01723 15.7508 5.92129 15.5589 5.92129 15.367V13.1844H5.94528Z" fill="white"/>
<path d="M15.4433 7.66768C15.3713 7.04408 15.0835 6.3725 14.7957 5.82084V6.75626L15.6592 11.1215C14.4599 11.8411 13.0688 12.0569 11.7016 11.6732C11.7256 11.3854 11.6297 12.7285 11.9175 8.84295C12.4452 8.55513 13.0208 8.00347 13.1407 6.87618C13.1647 6.49242 12.9009 6.15663 12.5171 6.13265C12.1334 6.10866 11.7976 6.3725 11.7736 6.75626C11.7496 7.14002 11.6297 7.35588 11.4858 7.49979C11.3898 7.45182 11.2699 7.40385 11.174 7.35588L11.2699 6.8522C11.6537 6.22859 11.4138 5.4131 10.7662 5.10129C11.3659 3.92603 11.2219 4.06994 11.4618 3.92603C12.4212 3.44633 13.3806 3.37437 14.388 3.8061C15.2994 4.18986 16.2348 6.54039 16.3787 7.52377C16.4267 8.14738 15.5392 8.29129 15.4433 7.66768Z" fill="white"/>
<path d="M12.9969 3.42253C13.7165 3.42253 14.3161 2.84689 14.3161 2.10335C14.3161 1.3838 13.7165 0.78418 12.9969 0.78418C12.2774 0.78418 11.6777 1.3838 11.6777 2.10335C11.7017 2.84689 12.2774 3.42253 12.9969 3.42253Z" fill="white"/>
<path d="M10.2146 7.23593C10.7902 7.23593 11.198 6.75623 11.198 6.22856C11.198 5.8448 10.9581 5.48503 10.6223 5.31713C10.5024 5.26916 10.3585 5.22119 10.2146 5.22119C9.66293 5.22119 9.2312 5.65292 9.2312 6.20458C9.2312 6.78021 9.68692 7.23593 10.2146 7.23593Z" fill="white"/>
<path d="M11.7016 15.295L11.3418 12.6327L11.3179 12.4168C11.3658 12.4168 11.4138 12.3689 11.4138 12.3209C11.6297 9.7785 11.7016 8.69918 11.7016 8.72316C12.4691 8.38737 12.8289 7.71579 12.9009 6.87632C12.9248 6.63647 12.733 6.39662 12.4931 6.37263C12.2533 6.34865 12.0134 6.54053 11.9894 6.78038C11.9654 7.18812 11.8215 7.57188 11.4857 7.78775C11.1979 7.61985 10.8142 7.47594 10.4784 7.42797C10.4544 7.40399 10.2625 7.52391 9.90274 7.42797C9.85477 7.42797 9.51898 7.45196 9.13522 7.66782C8.8474 7.81173 8.41567 8.12354 8.46364 8.41136C8.58357 8.45933 8.67951 8.55527 8.72748 8.67519C8.72748 8.69918 9.71086 10.6659 9.6389 10.546C9.85477 11.0257 9.39905 11.5294 8.91936 11.3135C8.91936 11.3375 8.99131 12.3689 8.99131 12.2969C8.99131 12.3449 9.03928 12.3929 9.08725 12.3929C8.65552 15.5349 8.70349 15.2711 8.70349 15.2711C8.60755 16.0146 9.73484 16.1825 9.83078 15.415L10.0706 13.6401L10.1906 14.5035L10.3105 15.4629C10.3824 16.0386 11.054 16.3264 11.5097 16.0386C11.3898 16.0146 11.2939 15.9906 11.1979 15.9187C11.5577 15.8707 11.7496 15.5829 11.7016 15.295Z" fill="white"/>
<path d="M6.13721 13.2803L6.16119 13.4242V15.367C6.16119 15.9666 7.07262 15.9666 7.07262 15.367V13.4961C6.76082 13.4722 6.44901 13.4002 6.13721 13.2803C6.16119 13.2803 6.16119 13.2803 6.13721 13.2803Z" fill="white"/>
<path d="M8.58358 15.7265C8.75148 15.4627 8.65554 15.2708 8.67952 13.9517L8.51163 15.2708C8.48764 15.4147 8.53561 15.5826 8.58358 15.7265Z" fill="white"/>
<path d="M7.55225 15.367C7.55225 15.9666 8.46367 15.9666 8.46367 15.367V13.2803C8.17586 13.4002 7.86405 13.4722 7.55225 13.4961V15.367Z" fill="white"/>
<path d="M6.52087 7.42822C6.52087 8.45958 8.10388 8.45958 8.10388 7.42822C8.10388 6.99649 7.74411 6.63672 7.31238 6.63672C6.88065 6.63672 6.52087 6.99649 6.52087 7.42822Z" fill="white"/>
<path d="M8.87148 12.8485C8.87148 12.8245 8.31983 10.0662 8.3678 10.2341V9.94629C8.3678 9.97027 8.87148 10.9776 8.87148 10.9537C9.06336 11.3614 9.68697 11.0736 9.49509 10.6419C8.51171 8.6511 8.65562 8.6511 7.98404 8.43524C7.8881 8.41125 7.81614 8.38727 7.7202 8.36328C7.52832 8.45922 7.21652 8.45922 6.97667 8.36328C6.78479 8.41125 6.52095 8.48321 6.30509 8.60313C6.25712 8.62712 6.18516 8.67509 6.16118 8.74704C4.57817 11.961 6.25712 8.55516 5.24975 10.6179C5.1778 10.7618 5.22577 10.9297 5.34569 11.0256C5.4896 11.1695 5.77742 11.0976 5.87336 10.9057C5.9693 10.6898 6.35306 9.9223 6.32907 9.97027V10.1861C5.89734 12.3688 5.8014 12.8245 5.82539 12.8005C6.80877 13.4481 7.91208 13.4241 8.87148 12.8485Z" fill="white"/>
</g>
<defs>
<clipPath id="clip0_637_2902">
<rect width="15.8301" height="15.8301" fill="white" transform="translate(0.764526 0.568359)"/>
</clipPath>
</defs>
</svg>
