<svg width="17" height="16" viewBox="0 0 17 16" fill="none" xmlns="http://www.w3.org/2000/svg">
<g clip-path="url(#clip0_637_2956)">
<path d="M5.52434 3.37583C6.27129 3.37583 6.87681 2.77031 6.87681 2.02336C6.87681 1.27642 6.27129 0.670898 5.52434 0.670898C4.77739 0.670898 4.17188 1.27642 4.17188 2.02336C4.17188 2.77031 4.77739 3.37583 5.52434 3.37583Z" fill="white"/>
<path d="M11.7799 2.88728C12.5535 2.88728 13.1806 2.26018 13.1806 1.48661C13.1806 0.71304 12.5535 0.0859375 11.7799 0.0859375C11.0064 0.0859375 10.3793 0.71304 10.3793 1.48661C10.3793 2.26018 11.0064 2.88728 11.7799 2.88728Z" fill="white"/>
<path d="M15.1059 8.58599V4.04762C15.1059 4.0465 15.1059 4.04538 15.1059 4.0443C15.1015 3.18981 14.4002 2.49463 13.5424 2.49463H13.2423C12.9214 2.95884 12.3857 3.26372 11.7799 3.26372C11.1742 3.26372 10.6385 2.95881 10.3176 2.49463H10.0358C9.16792 2.49463 8.45836 3.18981 8.45408 4.04433V4.04762V5.2618C8.31713 4.87652 8.19104 4.51813 8.09215 4.23035C7.84932 3.52372 7.47127 3.10371 6.96587 2.9765C6.65609 3.44372 6.1257 3.75255 5.52435 3.75255C4.92167 3.75255 4.39035 3.44233 4.08084 2.9734C3.56908 3.09669 3.18669 3.51776 2.94181 4.23029C2.5326 5.42104 1.65872 7.81944 1.47024 8.33596C0.977287 8.3882 0.591919 8.80638 0.591919 9.31296V10.1481C0.591919 10.3151 0.717912 10.4609 0.884507 10.4717C1.06709 10.4835 1.21891 10.3389 1.21891 10.1588V9.31296C1.21891 9.14972 1.3296 9.01221 1.47974 8.97058C1.55172 9.0963 1.66654 9.19842 1.81324 9.25206C1.85133 9.26599 1.88991 9.27562 1.92852 9.28201C1.92942 9.29225 1.93011 9.30253 1.93011 9.31299V15.5897C1.93011 15.7567 2.0561 15.9025 2.22273 15.9133C2.40531 15.9251 2.55712 15.7805 2.55712 15.6005V9.31296C2.55712 9.22477 2.54527 9.13935 2.52338 9.05799C2.5678 9.00395 2.60452 8.94215 2.62991 8.87271C2.63879 8.84847 3.38532 6.80591 3.89525 5.36234L2.99085 10.1037C2.94845 10.3227 3.11722 10.525 3.3381 10.525H3.82395V15.1263C3.82395 15.5546 4.17449 15.9155 4.60276 15.9074C5.01789 15.8995 5.35204 15.5605 5.35204 15.1435V10.525H5.68188V15.1263C5.68188 15.5546 6.03242 15.9155 6.46069 15.9074C6.87585 15.8995 7.20997 15.5605 7.20997 15.1435V10.525H7.69582C7.91745 10.525 8.0855 10.3229 8.04307 10.1037L7.13874 5.36234C7.13874 5.36234 7.79385 7.14912 8.46072 8.96518C8.72087 9.67359 9.77035 9.48703 9.77035 8.73235V4.04995C9.77162 3.9247 9.89867 3.8109 10.0367 3.8109V15.0961C10.0367 15.539 10.3991 15.9124 10.842 15.9042C11.2713 15.8962 11.6168 15.5457 11.6168 15.1145V8.80178H11.9578V15.0967C11.9578 15.5409 12.3214 15.914 12.7654 15.9041C13.1933 15.8946 13.5343 15.5447 13.5343 15.1145V3.8109C13.6671 3.8109 13.7882 3.92013 13.7896 4.0497V8.88271C13.7896 9.01689 13.83 9.14152 13.8989 9.24557C13.8714 9.33605 13.8564 9.432 13.8564 9.53139V15.589C13.8564 15.7559 13.9824 15.9017 14.149 15.9125C14.3316 15.9244 14.4834 15.7798 14.4834 15.5997V9.53906C14.7081 9.52701 14.9023 9.4027 15.0116 9.22083C15.1206 9.28164 15.1946 9.39801 15.1946 9.53139V10.3665C15.1946 10.5335 15.3206 10.6793 15.4871 10.6901C15.6697 10.702 15.8215 10.5574 15.8215 10.3773V9.53139C15.8215 9.08211 15.5183 8.70261 15.1059 8.58599Z" fill="white"/>
</g>
<defs>
<clipPath id="clip0_637_2956">
<rect width="15.8278" height="15.8278" fill="white" transform="translate(0.292847 0.0859375)"/>
</clipPath>
</defs>
</svg>
