<svg width="49" height="48" viewBox="0 0 49 48" fill="none" xmlns="http://www.w3.org/2000/svg">
<g clip-path="url(#clip0_322_162)">
<path d="M33.1833 3.95984C32.2046 4.01609 31.2408 4.25609 30.3333 4.70984L25.0533 7.28984H10.0533L1.53333 5.21984C1.40583 5.18234 1.27458 5.17484 1.14333 5.18984C0.678329 5.24609 0.325829 5.62859 0.303329 6.09734C0.280829 6.56234 0.595829 6.97859 1.05333 7.07984L9.69333 9.17984L9.81333 9.20984H21.1233L12.9633 13.1998C12.9296 13.2148 12.9071 13.2448 12.8733 13.2598C11.6058 13.8186 11.2721 15.5511 12.2133 16.5598L12.1833 16.5898C12.1983 16.6048 12.2283 16.6048 12.2433 16.6198C15.1008 19.7511 19.6271 20.7898 23.6133 19.2298H23.6433L29.2833 17.0398L40.9233 28.7098C41.8046 29.5911 41.8046 30.9786 40.9233 31.8598C40.0421 32.7411 38.6546 32.7411 37.7733 31.8598C37.3908 31.5523 36.8396 31.5823 36.4908 31.9273C36.1458 32.2761 36.1158 32.8273 36.4233 33.2098C37.3046 34.0911 37.3046 35.5086 36.4233 36.3898C35.5421 37.2711 34.1546 37.2711 33.2733 36.3898L32.5833 35.6998C32.2008 35.3923 31.6496 35.4223 31.3008 35.7673C30.9558 36.1161 30.9258 36.6673 31.2333 37.0498C32.1146 37.9311 32.1146 39.3486 31.2333 40.2298C30.3521 41.1111 28.9646 41.1111 28.0833 40.2298L27.4233 39.5398C27.0521 39.1573 26.4408 39.1536 26.0583 39.5248C25.6758 39.8961 25.6721 40.5073 26.0433 40.8898C26.9246 41.7711 26.9246 43.1886 26.0433 44.0698C25.1621 44.9511 23.7746 44.9511 22.8933 44.0698L21.6933 42.8698L22.4133 42.1498C23.8196 40.7436 23.8196 38.4561 22.4133 37.0498C21.7121 36.3486 20.7858 35.9998 19.8633 35.9998C19.8521 35.9998 19.8446 35.9998 19.8333 35.9998C19.8483 35.0548 19.4996 34.1061 18.7833 33.3898C18.0821 32.6886 17.1558 32.3398 16.2333 32.3398C16.1846 32.3398 16.1321 32.3361 16.0833 32.3398C16.1133 31.3761 15.7683 30.4048 15.0333 29.6698C14.3321 28.9686 13.4058 28.5898 12.4833 28.5898C12.4346 28.5898 12.3821 28.5861 12.3333 28.5898C12.3633 27.6261 12.0183 26.6548 11.2833 25.9198C10.5821 25.2186 9.65583 24.8698 8.73333 24.8698C7.81083 24.8698 6.88458 25.2186 6.18333 25.9198L5.31333 26.7898L1.44333 26.1298C1.38333 26.1148 1.32333 26.1036 1.26333 26.0998C0.734579 26.0661 0.277079 26.4711 0.243329 26.9998C0.209579 27.5286 0.614579 27.9861 1.14333 28.0198L4.29333 28.5898C4.00833 29.7711 4.30458 31.0611 5.22333 31.9798C5.96583 32.7223 6.95208 33.0711 7.92333 33.0298C7.88208 34.0011 8.23083 34.9873 8.97333 35.7298C9.71583 36.4723 10.7021 36.8211 11.6733 36.7798C11.6433 37.7436 11.9883 38.7148 12.7233 39.4498C13.4396 40.1661 14.3883 40.5148 15.3333 40.4998C15.3108 41.4486 15.6483 42.4048 16.3533 43.1098L16.3833 43.1398C17.3846 44.1186 18.8246 44.3773 20.0733 43.9498L21.5433 45.4198C23.1558 47.0323 25.8108 47.0323 27.4233 45.4198C28.2071 44.6361 28.5708 43.6011 28.5933 42.5698C29.9808 42.9373 31.5033 42.6598 32.5833 41.5798C33.3671 40.7961 33.7608 39.7611 33.7833 38.7298C35.1671 39.0936 36.6933 38.8198 37.7733 37.7398C38.6958 36.8173 39.0446 35.5611 38.9133 34.3498C40.1246 34.4848 41.3808 34.1323 42.3033 33.2098C43.3346 32.1786 43.7021 30.7311 43.4133 29.3998L43.9833 28.8298L47.5233 28.3198C48.0521 28.2373 48.4158 27.7386 48.3333 27.2098C48.2508 26.6811 47.7521 26.3173 47.2233 26.3998L43.3833 26.9998L43.0833 27.0298L42.5133 27.5998C42.4458 27.5211 42.3783 27.4348 42.3033 27.3598L30.4833 15.5398C30.4383 15.4948 30.3858 15.4536 30.3333 15.4198C30.3221 15.4086 30.3146 15.4011 30.3033 15.3898C30.0521 15.0186 29.5796 14.8723 29.1633 15.0298L22.9233 17.4298C19.6421 18.7273 15.9483 17.8836 13.6233 15.2998L13.5933 15.2698C13.4696 15.1461 13.4621 15.0598 13.6233 14.9998H13.6833L13.7133 14.9698L25.5633 9.17984C25.7658 9.14984 25.9571 9.05609 26.1033 8.90984L31.1733 6.41984H31.2033C32.9733 5.53484 35.0396 5.71484 36.6633 6.80984L37.0233 7.22984L37.1133 7.34984L37.2333 7.40984C38.9771 8.60984 41.0771 8.92859 43.0533 8.39984V8.42984L43.1133 8.39984L47.5833 7.46984C48.1046 7.35359 48.4346 6.83609 48.3183 6.31484C48.2021 5.79359 47.6846 5.46359 47.1633 5.57984L42.6633 6.53984L42.6333 6.56984H42.6033C41.1708 6.96734 39.6933 6.70484 38.4033 5.84984L38.0433 5.42984L37.9533 5.33984L37.8333 5.24984C36.7308 4.47734 35.4708 4.05734 34.1733 3.95984C33.8471 3.93734 33.5096 3.94109 33.1833 3.95984ZM8.73333 26.7298C9.15333 26.7298 9.58083 26.9173 9.93333 27.2698C10.6383 27.9748 10.6383 28.9648 9.93333 29.6698L9.18333 30.3898L9.09333 30.4798L8.97333 30.6298C8.26833 31.3348 7.27833 31.3348 6.57333 30.6298C5.99583 30.0523 5.90958 29.2948 6.27333 28.6498C6.44208 28.5298 6.56583 28.3648 6.63333 28.1698L7.41333 27.4198L7.53333 27.2698C7.88583 26.9173 8.31333 26.7298 8.73333 26.7298ZM12.4833 30.4798C12.9033 30.4798 13.3308 30.6673 13.6833 31.0198C14.3883 31.7248 14.3883 32.6848 13.6833 33.3898L12.7233 34.3498C12.0183 35.0548 11.0283 35.0548 10.3233 34.3498C9.61833 33.6448 9.61833 32.6848 10.3233 31.9798L11.2833 31.0198C11.6358 30.6673 12.0633 30.4798 12.4833 30.4798ZM16.2333 34.2298C16.6533 34.2298 17.0508 34.4173 17.4033 34.7698C17.9846 35.3511 18.0821 36.1086 17.7033 36.7498C17.5721 36.8473 17.4333 36.9298 17.3133 37.0498L16.3533 38.0098V38.0398H16.3233C16.2183 38.1561 16.1396 38.2761 16.0533 38.3998C15.4121 38.7786 14.6546 38.6811 14.0733 38.0998C13.3683 37.3948 13.3683 36.4348 14.0733 35.7298L14.7933 34.9798L14.9733 34.8298L15.0333 34.7698C15.3858 34.4173 15.8133 34.2298 16.2333 34.2298ZM19.8633 37.8898C20.2833 37.8898 20.7108 38.0473 21.0633 38.3998C21.7683 39.1048 21.7683 40.0948 21.0633 40.7998L20.1033 41.7598C20.0208 41.8423 19.9533 41.9361 19.8633 41.9998C19.8558 42.0036 19.8408 41.9961 19.8333 41.9998C19.1621 42.4648 18.3221 42.3786 17.7033 41.7598C17.2496 41.3061 17.1446 40.3986 17.4633 39.7198C17.5833 39.6261 17.7146 39.5586 17.8233 39.4498L18.7833 38.4898C18.9108 38.3623 19.0083 38.2123 19.1133 38.0698C19.3533 37.9498 19.6121 37.8898 19.8633 37.8898Z" fill="#303864"/>
</g>
<defs>
<clipPath id="clip0_322_162">
<rect width="48" height="48" fill="white" transform="translate(0.333344)"/>
</clipPath>
</defs>
</svg>
