<svg width="49" height="48" viewBox="0 0 49 48" fill="none" xmlns="http://www.w3.org/2000/svg">
<path d="M33.3666 2.91016C32.1329 2.91016 30.8916 3.37516 29.9466 4.32016L28.0266 6.24016C27.0779 7.18891 26.6841 8.46391 26.7366 9.75016L24.6366 11.8502L22.5966 9.84016C22.6379 8.56516 22.2479 7.27141 21.3066 6.33016L19.3866 4.41016C18.4416 3.46516 17.2004 3.00016 15.9666 3.00016C14.7329 3.00016 13.5216 3.46516 12.5766 4.41016C10.6866 6.30016 10.6866 9.36016 12.5766 11.2502L14.4966 13.1702C15.4304 14.1039 16.6829 14.4639 17.9466 14.4302L21.7866 18.2402H3.54663V43.2002H45.7866V18.2402H31.0266L29.2566 16.4702L31.3866 14.3402C32.6504 14.3739 33.9029 13.9839 34.8366 13.0502L36.7566 11.1302C38.6466 9.24016 38.6466 6.21016 36.7566 4.32016C35.8116 3.37516 34.6004 2.91016 33.3666 2.91016ZM33.3666 4.77016C34.0979 4.77016 34.8141 5.07766 35.4066 5.67016C36.5879 6.85141 36.5879 8.59891 35.4066 9.78016L33.4866 11.7002C32.8491 12.3377 31.8929 12.6189 31.0566 12.4802C30.7491 12.4277 30.4379 12.5289 30.2166 12.7502L27.8766 15.0902L25.9866 13.2002L28.3266 10.8602C28.5479 10.6389 28.6491 10.3277 28.5966 10.0202C28.4579 9.18391 28.7391 8.22766 29.3766 7.59016L31.2966 5.67016C31.8891 5.07766 32.6354 4.77016 33.3666 4.77016ZM15.9666 4.89016C16.6979 4.89016 17.4441 5.16766 18.0366 5.76016L19.9566 7.68016C20.5941 8.31766 20.8754 9.27391 20.7366 10.1102C20.6841 10.4177 20.7854 10.7289 21.0066 10.9502L34.7766 24.7202C35.7254 25.5902 36.1866 26.7227 36.1866 28.0202V29.8202L32.0766 25.7402V25.7102L31.9566 25.6202L30.0666 23.7602L19.1166 12.8702C18.8954 12.6489 18.5841 12.5477 18.2766 12.6002C17.4404 12.7389 16.4841 12.4277 15.8466 11.7902L13.9266 9.87016C12.7454 8.68891 12.7454 6.94141 13.9266 5.76016C14.5191 5.16766 15.2354 4.89016 15.9666 4.89016ZM16.5666 6.87016C16.2066 6.87016 15.8354 7.00141 15.5466 7.29016C14.9691 7.86766 14.9691 8.72266 15.5466 9.30016L16.5066 10.2602C16.9866 10.7402 17.9391 10.7402 18.5166 10.2602C19.0941 9.68266 19.0941 8.82766 18.5166 8.25016L17.5566 7.29016C17.2679 7.00141 16.9266 6.87016 16.5666 6.87016ZM32.7666 6.87016C32.4066 6.87016 32.0654 7.00141 31.7766 7.29016L30.8166 8.25016C30.3366 8.73016 30.3366 9.68266 30.8166 10.2602C31.3941 10.8377 32.2491 10.8377 32.8266 10.2602L33.7866 9.30016C34.3641 8.72266 34.3641 7.86766 33.7866 7.29016C33.4979 7.00141 33.1266 6.87016 32.7666 6.87016ZM24.6666 15.3602C24.0816 15.3602 23.6166 15.8252 23.6166 16.4102C23.6166 16.9952 24.0816 17.4602 24.6666 17.4602C25.2516 17.4602 25.7166 16.9952 25.7166 16.4102C25.7166 15.8252 25.2516 15.3602 24.6666 15.3602ZM5.46663 20.1602H7.71663C7.50663 20.5352 7.35663 20.8877 7.23663 21.1502C7.13913 21.3714 7.03413 21.5102 7.02663 21.5402V21.5702L6.99663 21.6002C7.02288 21.5739 6.81288 21.7164 6.51663 21.8402C6.22788 21.9602 5.86038 22.1102 5.46663 22.2902V20.1602ZM10.8366 20.1602H23.6766L23.7066 20.1902V21.1802C19.3529 21.7052 16.0266 25.8114 16.0266 30.7202C16.0266 35.6289 19.3566 39.7314 23.7066 40.2602V41.2802H10.8366C9.97038 41.2802 9.77538 40.9914 9.45663 40.4402C9.29913 40.1627 9.15288 39.8252 9.00663 39.4802C8.86038 39.1352 8.71788 38.7714 8.34663 38.4002L8.28663 38.3402C7.91538 38.0214 7.58913 37.9314 7.23663 37.8002C6.88413 37.6689 6.51663 37.5414 6.21663 37.4102C5.91663 37.2789 5.69538 37.1289 5.58663 37.0202C5.47788 36.9114 5.46663 36.9039 5.46663 36.7802V24.6602C5.46663 24.5964 5.48163 24.5702 5.49663 24.5402C5.51163 24.5102 5.53038 24.4764 5.58663 24.4202C5.69913 24.3077 5.94288 24.1689 6.24663 24.0302C6.55038 23.8914 6.90663 23.7602 7.26663 23.6102C7.60413 23.4714 7.94913 23.3214 8.28663 23.0102V22.9802C8.30538 22.9652 8.32788 22.9652 8.34663 22.9502C8.70663 22.6127 8.86413 22.2452 9.00663 21.9302C9.15663 21.5927 9.26913 21.2702 9.42663 21.0002C9.50538 20.8652 9.58788 20.7452 9.66663 20.6402C9.74538 20.5352 9.83538 20.4414 9.93663 20.3702C10.1391 20.2277 10.4016 20.1602 10.8366 20.1602ZM32.9466 20.1602H38.4966C39.3629 20.1602 39.5879 20.4564 39.9066 21.0002C40.0641 21.2702 40.1766 21.5927 40.3266 21.9302C40.4691 22.2452 40.6266 22.6127 40.9866 22.9502C41.0054 22.9689 41.0279 22.9614 41.0466 22.9802C41.0541 22.9877 41.0391 23.0027 41.0466 23.0102C41.3841 23.3214 41.7291 23.4714 42.0666 23.6102C42.4266 23.7602 42.7829 23.8914 43.0866 24.0302C43.3904 24.1689 43.6341 24.3077 43.7466 24.4202C43.8591 24.5327 43.8666 24.5364 43.8666 24.6602V36.6602C43.8666 36.7839 43.8591 36.8177 43.7466 36.9302C43.6341 37.0427 43.3904 37.1814 43.0866 37.3202C42.7829 37.4589 42.4266 37.5902 42.0666 37.7402C41.7066 37.8902 41.3504 38.0364 40.9866 38.4002C40.6154 38.7714 40.4729 39.1352 40.3266 39.4802C40.1804 39.8252 40.0341 40.1627 39.8766 40.4402C39.5579 40.9914 39.3629 41.2802 38.4966 41.2802H25.6266V40.2602C29.9766 39.7314 33.3066 35.6289 33.3066 30.7202C33.3066 30.3564 33.2504 29.9964 33.2166 29.6402L36.4566 32.8502C36.7304 33.1352 37.1541 33.2214 37.5179 33.0677C37.8816 32.9177 38.1141 32.5539 38.1066 32.1602V28.0202C38.1066 27.7989 38.0991 27.5777 38.0766 27.3602C37.9304 25.8377 37.2629 24.3939 36.0966 23.3102L32.9466 20.1602ZM41.6166 20.1602H43.8666V22.2902C43.4729 22.1102 43.1054 21.9602 42.8166 21.8402C42.5204 21.7164 42.3104 21.5739 42.3366 21.6002L42.3066 21.5702V21.5402C42.2991 21.5102 42.1941 21.3714 42.0966 21.1502C41.9766 20.8877 41.8266 20.5352 41.6166 20.1602ZM23.7066 23.1302V25.9202H25.6266V23.1602C26.1516 23.2652 26.6841 23.4302 27.1866 23.6702L29.3166 25.7402L30.5166 26.9102V26.9402C31.0529 28.0052 31.3866 29.3102 31.3866 30.7202C31.3866 34.6727 28.8329 37.7814 25.6266 38.3102V35.5202H23.7066V38.3102C20.5004 37.7814 17.9466 34.6727 17.9466 30.7202C17.9466 26.7677 20.5004 23.6589 23.7066 23.1302ZM23.7066 27.8402V33.6002H25.6266V27.8402H23.7066ZM43.8666 39.0602V41.2802H41.6166C41.8266 40.8902 41.9766 40.5114 42.0966 40.2302C42.2316 39.9189 42.3704 39.7164 42.3366 39.7502C42.3104 39.7764 42.5204 39.6339 42.8166 39.5102C43.1054 39.3902 43.4729 39.2402 43.8666 39.0602ZM5.46663 39.1502C5.86413 39.3227 6.24663 39.4577 6.54663 39.5702C6.83163 39.6752 7.02663 39.7877 7.02663 39.7802C7.01913 39.7802 7.11288 39.9414 7.23663 40.2302C7.35663 40.5114 7.50663 40.8902 7.71663 41.2802H5.46663V39.1502Z" fill="#303864"/>
</svg>
